<?xml version="1.0" encoding="UTF-8" standalone="no"?><svg xmlns="http://www.w3.org/2000/svg" xmlns:xlink="http://www.w3.org/1999/xlink" contentScriptType="application/ecmascript" contentStyleType="text/css" height="419px" preserveAspectRatio="none" style="width:4161px;height:419px;" version="1.1" viewBox="0 0 4161 419" width="4161px" zoomAndPan="magnify"><defs/><g><!--MD5=[97527e103ac6e86487c7d8eaa594275c]
class chess_Main--><rect fill="#FEFECE" height="32" id="chess_Main" style="stroke: #A80036; stroke-width: 1.5;" width="102" x="1159.5" y="8"/><ellipse cx="1174.5" cy="24" fill="#ADD1B2" rx="11" ry="11" style="stroke: #A80036; stroke-width: 1.0;"/><path d="M1177.4688,29.6406 Q1176.8906,29.9375 1176.25,30.0781 Q1175.6094,30.2344 1174.9063,30.2344 Q1172.4063,30.2344 1171.0781,28.5938 Q1169.7656,26.9375 1169.7656,23.8125 Q1169.7656,20.6875 1171.0781,19.0313 Q1172.4063,17.375 1174.9063,17.375 Q1175.6094,17.375 1176.25,17.5313 Q1176.9063,17.6875 1177.4688,17.9844 L1177.4688,20.7031 Q1176.8438,20.125 1176.25,19.8594 Q1175.6563,19.5781 1175.0313,19.5781 Q1173.6875,19.5781 1173,20.6563 Q1172.3125,21.7188 1172.3125,23.8125 Q1172.3125,25.9063 1173,26.9844 Q1173.6875,28.0469 1175.0313,28.0469 Q1175.6563,28.0469 1176.25,27.7813 Q1176.8438,27.5 1177.4688,26.9219 L1177.4688,29.6406 Z "/><text fill="#000000" font-family="sans-serif" font-size="12" lengthAdjust="spacingAndGlyphs" textLength="70" x="1188.5" y="28.1543">chess.Main</text><!--MD5=[8c21ca0163536762143db0ee40434b7c]
class chess_TrainMain--><rect fill="#FEFECE" height="32" id="chess_TrainMain" style="stroke: #A80036; stroke-width: 1.5;" width="133" x="57" y="8"/><ellipse cx="72" cy="24" fill="#ADD1B2" rx="11" ry="11" style="stroke: #A80036; stroke-width: 1.0;"/><path d="M74.9688,29.6406 Q74.3906,29.9375 73.75,30.0781 Q73.1094,30.2344 72.4063,30.2344 Q69.9063,30.2344 68.5781,28.5938 Q67.2656,26.9375 67.2656,23.8125 Q67.2656,20.6875 68.5781,19.0313 Q69.9063,17.375 72.4063,17.375 Q73.1094,17.375 73.75,17.5313 Q74.4063,17.6875 74.9688,17.9844 L74.9688,20.7031 Q74.3438,20.125 73.75,19.8594 Q73.1563,19.5781 72.5313,19.5781 Q71.1875,19.5781 70.5,20.6563 Q69.8125,21.7188 69.8125,23.8125 Q69.8125,25.9063 70.5,26.9844 Q71.1875,28.0469 72.5313,28.0469 Q73.1563,28.0469 73.75,27.7813 Q74.3438,27.5 74.9688,26.9219 L74.9688,29.6406 Z "/><text fill="#000000" font-family="sans-serif" font-size="12" lengthAdjust="spacingAndGlyphs" textLength="101" x="86" y="28.1543">chess.TrainMain</text><!--MD5=[f0f35359e755f6a776e16d1ef4483400]
class chess_ai_AiEngine--><rect fill="#FEFECE" height="32" id="chess_ai_AiEngine" style="stroke: #A80036; stroke-width: 1.5;" width="142" x="225.5" y="8"/><ellipse cx="240.5" cy="24" fill="#ADD1B2" rx="11" ry="11" style="stroke: #A80036; stroke-width: 1.0;"/><path d="M243.4688,29.6406 Q242.8906,29.9375 242.25,30.0781 Q241.6094,30.2344 240.9063,30.2344 Q238.4063,30.2344 237.0781,28.5938 Q235.7656,26.9375 235.7656,23.8125 Q235.7656,20.6875 237.0781,19.0313 Q238.4063,17.375 240.9063,17.375 Q241.6094,17.375 242.25,17.5313 Q242.9063,17.6875 243.4688,17.9844 L243.4688,20.7031 Q242.8438,20.125 242.25,19.8594 Q241.6563,19.5781 241.0313,19.5781 Q239.6875,19.5781 239,20.6563 Q238.3125,21.7188 238.3125,23.8125 Q238.3125,25.9063 239,26.9844 Q239.6875,28.0469 241.0313,28.0469 Q241.6563,28.0469 242.25,27.7813 Q242.8438,27.5 243.4688,26.9219 L243.4688,29.6406 Z "/><text fill="#000000" font-family="sans-serif" font-size="12" lengthAdjust="spacingAndGlyphs" textLength="110" x="254.5" y="28.1543">chess.ai.AiEngine</text><!--MD5=[f8089e74b8f571e8a5744aa091fbd13e]
class chess_ai_Evaluator--><rect fill="#FEFECE" height="32" id="chess_ai_Evaluator" style="stroke: #A80036; stroke-width: 1.5;" width="147" x="403" y="8"/><ellipse cx="418" cy="24" fill="#ADD1B2" rx="11" ry="11" style="stroke: #A80036; stroke-width: 1.0;"/><path d="M420.9688,29.6406 Q420.3906,29.9375 419.75,30.0781 Q419.1094,30.2344 418.4063,30.2344 Q415.9063,30.2344 414.5781,28.5938 Q413.2656,26.9375 413.2656,23.8125 Q413.2656,20.6875 414.5781,19.0313 Q415.9063,17.375 418.4063,17.375 Q419.1094,17.375 419.75,17.5313 Q420.4063,17.6875 420.9688,17.9844 L420.9688,20.7031 Q420.3438,20.125 419.75,19.8594 Q419.1563,19.5781 418.5313,19.5781 Q417.1875,19.5781 416.5,20.6563 Q415.8125,21.7188 415.8125,23.8125 Q415.8125,25.9063 416.5,26.9844 Q417.1875,28.0469 418.5313,28.0469 Q419.1563,28.0469 419.75,27.7813 Q420.3438,27.5 420.9688,26.9219 L420.9688,29.6406 Z "/><text fill="#000000" font-family="sans-serif" font-size="12" lengthAdjust="spacingAndGlyphs" textLength="115" x="432" y="28.1543">chess.ai.Evaluator</text><!--MD5=[3830738e6b531a2de2a285c22b62bf09]
class chess_ai_PassiveTrainer--><rect fill="#FEFECE" height="32" id="chess_ai_PassiveTrainer" style="stroke: #A80036; stroke-width: 1.5;" width="179" x="2627" y="8"/><ellipse cx="2642" cy="24" fill="#ADD1B2" rx="11" ry="11" style="stroke: #A80036; stroke-width: 1.0;"/><path d="M2644.9688,29.6406 Q2644.3906,29.9375 2643.75,30.0781 Q2643.1094,30.2344 2642.4063,30.2344 Q2639.9063,30.2344 2638.5781,28.5938 Q2637.2656,26.9375 2637.2656,23.8125 Q2637.2656,20.6875 2638.5781,19.0313 Q2639.9063,17.375 2642.4063,17.375 Q2643.1094,17.375 2643.75,17.5313 Q2644.4063,17.6875 2644.9688,17.9844 L2644.9688,20.7031 Q2644.3438,20.125 2643.75,19.8594 Q2643.1563,19.5781 2642.5313,19.5781 Q2641.1875,19.5781 2640.5,20.6563 Q2639.8125,21.7188 2639.8125,23.8125 Q2639.8125,25.9063 2640.5,26.9844 Q2641.1875,28.0469 2642.5313,28.0469 Q2643.1563,28.0469 2643.75,27.7813 Q2644.3438,27.5 2644.9688,26.9219 L2644.9688,29.6406 Z "/><text fill="#000000" font-family="sans-serif" font-size="12" lengthAdjust="spacingAndGlyphs" textLength="147" x="2656" y="28.1543">chess.ai.PassiveTrainer</text><!--MD5=[c86a1f50cef1a0a8ccc6640210c40b31]
class chess_ai_Trainer--><rect fill="#FEFECE" height="32" id="chess_ai_Trainer" style="stroke: #A80036; stroke-width: 1.5;" width="130" x="2651.5" y="100"/><ellipse cx="2666.5" cy="116" fill="#B4A7E5" rx="11" ry="11" style="stroke: #A80036; stroke-width: 1.0;"/><path d="M2662.4219,111.7656 L2662.4219,109.6094 L2669.8125,109.6094 L2669.8125,111.7656 L2667.3438,111.7656 L2667.3438,119.8438 L2669.8125,119.8438 L2669.8125,122 L2662.4219,122 L2662.4219,119.8438 L2664.8906,119.8438 L2664.8906,111.7656 L2662.4219,111.7656 Z "/><text fill="#000000" font-family="sans-serif" font-size="12" font-style="italic" lengthAdjust="spacingAndGlyphs" textLength="98" x="2680.5" y="120.1543">chess.ai.Trainer</text><!--MD5=[bf2ec17cb983cb297b4ff8bb06147648]
class chess_controller_AppState--><rect fill="#FEFECE" height="32" id="chess_controller_AppState" style="stroke: #A80036; stroke-width: 1.5;" width="195" x="1310" y="192"/><ellipse cx="1325" cy="208" fill="#ADD1B2" rx="11" ry="11" style="stroke: #A80036; stroke-width: 1.0;"/><path d="M1327.9688,213.6406 Q1327.3906,213.9375 1326.75,214.0781 Q1326.1094,214.2344 1325.4063,214.2344 Q1322.9063,214.2344 1321.5781,212.5938 Q1320.2656,210.9375 1320.2656,207.8125 Q1320.2656,204.6875 1321.5781,203.0313 Q1322.9063,201.375 1325.4063,201.375 Q1326.1094,201.375 1326.75,201.5313 Q1327.4063,201.6875 1327.9688,201.9844 L1327.9688,204.7031 Q1327.3438,204.125 1326.75,203.8594 Q1326.1563,203.5781 1325.5313,203.5781 Q1324.1875,203.5781 1323.5,204.6563 Q1322.8125,205.7188 1322.8125,207.8125 Q1322.8125,209.9063 1323.5,210.9844 Q1324.1875,212.0469 1325.5313,212.0469 Q1326.1563,212.0469 1326.75,211.7813 Q1327.3438,211.5 1327.9688,210.9219 L1327.9688,213.6406 Z "/><text fill="#000000" font-family="sans-serif" font-size="12" lengthAdjust="spacingAndGlyphs" textLength="163" x="1339" y="212.1543">chess.controller.AppState</text><!--MD5=[165d8a7c0b48f0ee705413705c052888]
class chess_controller_Command--><rect fill="#FEFECE" height="32" id="chess_controller_Command" style="stroke: #A80036; stroke-width: 1.5;" width="199" x="585" y="8"/><ellipse cx="600" cy="24" fill="#EB937F" rx="11" ry="11" style="stroke: #A80036; stroke-width: 1.0;"/><path d="M604.1094,30 L596.3906,30 L596.3906,17.6094 L604.1094,17.6094 L604.1094,19.7656 L598.8438,19.7656 L598.8438,22.4375 L603.6094,22.4375 L603.6094,24.5938 L598.8438,24.5938 L598.8438,27.8438 L604.1094,27.8438 L604.1094,30 Z "/><text fill="#000000" font-family="sans-serif" font-size="12" lengthAdjust="spacingAndGlyphs" textLength="167" x="614" y="28.1543">chess.controller.Command</text><!--MD5=[40012af92fe11bb3c76efa836dc25d8a]
class chess_controller_GameController--><rect fill="#FEFECE" height="32" id="chess_controller_GameController" style="stroke: #A80036; stroke-width: 1.5;" width="234" x="1093.5" y="100"/><ellipse cx="1108.5" cy="116" fill="#ADD1B2" rx="11" ry="11" style="stroke: #A80036; stroke-width: 1.0;"/><path d="M1111.4688,121.6406 Q1110.8906,121.9375 1110.25,122.0781 Q1109.6094,122.2344 1108.9063,122.2344 Q1106.4063,122.2344 1105.0781,120.5938 Q1103.7656,118.9375 1103.7656,115.8125 Q1103.7656,112.6875 1105.0781,111.0313 Q1106.4063,109.375 1108.9063,109.375 Q1109.6094,109.375 1110.25,109.5313 Q1110.9063,109.6875 1111.4688,109.9844 L1111.4688,112.7031 Q1110.8438,112.125 1110.25,111.8594 Q1109.6563,111.5781 1109.0313,111.5781 Q1107.6875,111.5781 1107,112.6563 Q1106.3125,113.7188 1106.3125,115.8125 Q1106.3125,117.9063 1107,118.9844 Q1107.6875,120.0469 1109.0313,120.0469 Q1109.6563,120.0469 1110.25,119.7813 Q1110.8438,119.5 1111.4688,118.9219 L1111.4688,121.6406 Z "/><text fill="#000000" font-family="sans-serif" font-size="12" lengthAdjust="spacingAndGlyphs" textLength="202" x="1122.5" y="120.1543">chess.controller.GameController</text><!--MD5=[c1979ae29ba17f39ab36501d310ab9b9]
class chess_controller_MessageType--><rect fill="#FEFECE" height="32" id="chess_controller_MessageType" style="stroke: #A80036; stroke-width: 1.5;" width="222" x="2153.5" y="100"/><ellipse cx="2168.5" cy="116" fill="#EB937F" rx="11" ry="11" style="stroke: #A80036; stroke-width: 1.0;"/><path d="M2172.6094,122 L2164.8906,122 L2164.8906,109.6094 L2172.6094,109.6094 L2172.6094,111.7656 L2167.3438,111.7656 L2167.3438,114.4375 L2172.1094,114.4375 L2172.1094,116.5938 L2167.3438,116.5938 L2167.3438,119.8438 L2172.6094,119.8438 L2172.6094,122 Z "/><text fill="#000000" font-family="sans-serif" font-size="12" lengthAdjust="spacingAndGlyphs" textLength="190" x="2182.5" y="120.1543">chess.controller.MessageType</text><!--MD5=[3978895b85a544ff61b6b997701b78c9]
class chess_model_BlackToMove--><rect fill="#FEFECE" height="32" id="chess_model_BlackToMove" style="stroke: #A80036; stroke-width: 1.5;" width="195" x="819" y="8"/><ellipse cx="834" cy="24" fill="#ADD1B2" rx="11" ry="11" style="stroke: #A80036; stroke-width: 1.0;"/><path d="M836.9688,29.6406 Q836.3906,29.9375 835.75,30.0781 Q835.1094,30.2344 834.4063,30.2344 Q831.9063,30.2344 830.5781,28.5938 Q829.2656,26.9375 829.2656,23.8125 Q829.2656,20.6875 830.5781,19.0313 Q831.9063,17.375 834.4063,17.375 Q835.1094,17.375 835.75,17.5313 Q836.4063,17.6875 836.9688,17.9844 L836.9688,20.7031 Q836.3438,20.125 835.75,19.8594 Q835.1563,19.5781 834.5313,19.5781 Q833.1875,19.5781 832.5,20.6563 Q831.8125,21.7188 831.8125,23.8125 Q831.8125,25.9063 832.5,26.9844 Q833.1875,28.0469 834.5313,28.0469 Q835.1563,28.0469 835.75,27.7813 Q836.3438,27.5 836.9688,26.9219 L836.9688,29.6406 Z "/><text fill="#000000" font-family="sans-serif" font-size="12" lengthAdjust="spacingAndGlyphs" textLength="163" x="848" y="28.1543">chess.model.BlackToMove</text><!--MD5=[1d64190471f729168716eb9959411ae0]
class chess_model_Board--><rect fill="#FEFECE" height="32" id="chess_model_Board" style="stroke: #A80036; stroke-width: 1.5;" width="152" x="47.5" y="100"/><ellipse cx="62.5" cy="116" fill="#ADD1B2" rx="11" ry="11" style="stroke: #A80036; stroke-width: 1.0;"/><path d="M65.4688,121.6406 Q64.8906,121.9375 64.25,122.0781 Q63.6094,122.2344 62.9063,122.2344 Q60.4063,122.2344 59.0781,120.5938 Q57.7656,118.9375 57.7656,115.8125 Q57.7656,112.6875 59.0781,111.0313 Q60.4063,109.375 62.9063,109.375 Q63.6094,109.375 64.25,109.5313 Q64.9063,109.6875 65.4688,109.9844 L65.4688,112.7031 Q64.8438,112.125 64.25,111.8594 Q63.6563,111.5781 63.0313,111.5781 Q61.6875,111.5781 61,112.6563 Q60.3125,113.7188 60.3125,115.8125 Q60.3125,117.9063 61,118.9844 Q61.6875,120.0469 63.0313,120.0469 Q63.6563,120.0469 64.25,119.7813 Q64.8438,119.5 65.4688,118.9219 L65.4688,121.6406 Z "/><text fill="#000000" font-family="sans-serif" font-size="12" lengthAdjust="spacingAndGlyphs" textLength="120" x="76.5" y="120.1543">chess.model.Board</text><!--MD5=[10b666e78878521e285c7a2e3730155c]
class chess_model_CastlingRights--><rect fill="#FEFECE" height="32" id="chess_model_CastlingRights" style="stroke: #A80036; stroke-width: 1.5;" width="204" x="234.5" y="100"/><ellipse cx="249.5" cy="116" fill="#ADD1B2" rx="11" ry="11" style="stroke: #A80036; stroke-width: 1.0;"/><path d="M252.4688,121.6406 Q251.8906,121.9375 251.25,122.0781 Q250.6094,122.2344 249.9063,122.2344 Q247.4063,122.2344 246.0781,120.5938 Q244.7656,118.9375 244.7656,115.8125 Q244.7656,112.6875 246.0781,111.0313 Q247.4063,109.375 249.9063,109.375 Q250.6094,109.375 251.25,109.5313 Q251.9063,109.6875 252.4688,109.9844 L252.4688,112.7031 Q251.8438,112.125 251.25,111.8594 Q250.6563,111.5781 250.0313,111.5781 Q248.6875,111.5781 248,112.6563 Q247.3125,113.7188 247.3125,115.8125 Q247.3125,117.9063 248,118.9844 Q248.6875,120.0469 250.0313,120.0469 Q250.6563,120.0469 251.25,119.7813 Q251.8438,119.5 252.4688,118.9219 L252.4688,121.6406 Z "/><text fill="#000000" font-family="sans-serif" font-size="12" lengthAdjust="spacingAndGlyphs" textLength="172" x="263.5" y="120.1543">chess.model.CastlingRights</text><!--MD5=[912d78f682013969c2ed505da73e4f9f]
class chess_model_ClockState--><rect fill="#FEFECE" height="32" id="chess_model_ClockState" style="stroke: #A80036; stroke-width: 1.5;" width="182" x="473.5" y="100"/><ellipse cx="488.5" cy="116" fill="#ADD1B2" rx="11" ry="11" style="stroke: #A80036; stroke-width: 1.0;"/><path d="M491.4688,121.6406 Q490.8906,121.9375 490.25,122.0781 Q489.6094,122.2344 488.9063,122.2344 Q486.4063,122.2344 485.0781,120.5938 Q483.7656,118.9375 483.7656,115.8125 Q483.7656,112.6875 485.0781,111.0313 Q486.4063,109.375 488.9063,109.375 Q489.6094,109.375 490.25,109.5313 Q490.9063,109.6875 491.4688,109.9844 L491.4688,112.7031 Q490.8438,112.125 490.25,111.8594 Q489.6563,111.5781 489.0313,111.5781 Q487.6875,111.5781 487,112.6563 Q486.3125,113.7188 486.3125,115.8125 Q486.3125,117.9063 487,118.9844 Q487.6875,120.0469 489.0313,120.0469 Q489.6563,120.0469 490.25,119.7813 Q490.8438,119.5 491.4688,118.9219 L491.4688,121.6406 Z "/><text fill="#000000" font-family="sans-serif" font-size="12" lengthAdjust="spacingAndGlyphs" textLength="150" x="502.5" y="120.1543">chess.model.ClockState</text><!--MD5=[3a009029062094ada1ea5aee3dc31ecd]
class chess_model_Color--><rect fill="#FEFECE" height="32" id="chess_model_Color" style="stroke: #A80036; stroke-width: 1.5;" width="147" x="691" y="100"/><ellipse cx="706" cy="116" fill="#EB937F" rx="11" ry="11" style="stroke: #A80036; stroke-width: 1.0;"/><path d="M710.1094,122 L702.3906,122 L702.3906,109.6094 L710.1094,109.6094 L710.1094,111.7656 L704.8438,111.7656 L704.8438,114.4375 L709.6094,114.4375 L709.6094,116.5938 L704.8438,116.5938 L704.8438,119.8438 L710.1094,119.8438 L710.1094,122 Z "/><text fill="#000000" font-family="sans-serif" font-size="12" lengthAdjust="spacingAndGlyphs" textLength="115" x="720" y="120.1543">chess.model.Color</text><!--MD5=[8ba1057df13b27b82264da08f90f867a]
class chess_model_GameRules--><rect fill="#FEFECE" height="32" id="chess_model_GameRules" style="stroke: #A80036; stroke-width: 1.5;" width="185" x="873" y="100"/><ellipse cx="888" cy="116" fill="#ADD1B2" rx="11" ry="11" style="stroke: #A80036; stroke-width: 1.0;"/><path d="M890.9688,121.6406 Q890.3906,121.9375 889.75,122.0781 Q889.1094,122.2344 888.4063,122.2344 Q885.9063,122.2344 884.5781,120.5938 Q883.2656,118.9375 883.2656,115.8125 Q883.2656,112.6875 884.5781,111.0313 Q885.9063,109.375 888.4063,109.375 Q889.1094,109.375 889.75,109.5313 Q890.4063,109.6875 890.9688,109.9844 L890.9688,112.7031 Q890.3438,112.125 889.75,111.8594 Q889.1563,111.5781 888.5313,111.5781 Q887.1875,111.5781 886.5,112.6563 Q885.8125,113.7188 885.8125,115.8125 Q885.8125,117.9063 886.5,118.9844 Q887.1875,120.0469 888.5313,120.0469 Q889.1563,120.0469 889.75,119.7813 Q890.3438,119.5 890.9688,118.9219 L890.9688,121.6406 Z "/><text fill="#000000" font-family="sans-serif" font-size="12" lengthAdjust="spacingAndGlyphs" textLength="153" x="902" y="120.1543">chess.model.GameRules</text><!--MD5=[84a0769cd6127c93fd7317687b04f1a7]
class chess_model_GameState--><rect fill="#FEFECE" height="32" id="chess_model_GameState" style="stroke: #A80036; stroke-width: 1.5;" width="183" x="3096" y="376"/><ellipse cx="3111" cy="392" fill="#B4A7E5" rx="11" ry="11" style="stroke: #A80036; stroke-width: 1.0;"/><path d="M3106.9219,387.7656 L3106.9219,385.6094 L3114.3125,385.6094 L3114.3125,387.7656 L3111.8438,387.7656 L3111.8438,395.8438 L3114.3125,395.8438 L3114.3125,398 L3106.9219,398 L3106.9219,395.8438 L3109.3906,395.8438 L3109.3906,387.7656 L3106.9219,387.7656 Z "/><text fill="#000000" font-family="sans-serif" font-size="12" font-style="italic" lengthAdjust="spacingAndGlyphs" textLength="151" x="3125" y="396.1543">chess.model.GameState</text><!--MD5=[1a20a8f149c38babd731ccbe850b8d04]
class chess_model_GameStatus--><rect fill="#FEFECE" height="32" id="chess_model_GameStatus" style="stroke: #A80036; stroke-width: 1.5;" width="192" x="27.5" y="192"/><ellipse cx="42.5" cy="208" fill="#EB937F" rx="11" ry="11" style="stroke: #A80036; stroke-width: 1.0;"/><path d="M46.6094,214 L38.8906,214 L38.8906,201.6094 L46.6094,201.6094 L46.6094,203.7656 L41.3438,203.7656 L41.3438,206.4375 L46.1094,206.4375 L46.1094,208.5938 L41.3438,208.5938 L41.3438,211.8438 L46.6094,211.8438 L46.6094,214 Z "/><text fill="#000000" font-family="sans-serif" font-size="12" lengthAdjust="spacingAndGlyphs" textLength="160" x="56.5" y="212.1543">chess.model.GameStatus</text><!--MD5=[4d2c3ec98476c53272810a7316aed6bc]
class chess_model_MaterialInfo--><rect fill="#FEFECE" height="32" id="chess_model_MaterialInfo" style="stroke: #A80036; stroke-width: 1.5;" width="188" x="254.5" y="192"/><ellipse cx="269.5" cy="208" fill="#ADD1B2" rx="11" ry="11" style="stroke: #A80036; stroke-width: 1.0;"/><path d="M272.4688,213.6406 Q271.8906,213.9375 271.25,214.0781 Q270.6094,214.2344 269.9063,214.2344 Q267.4063,214.2344 266.0781,212.5938 Q264.7656,210.9375 264.7656,207.8125 Q264.7656,204.6875 266.0781,203.0313 Q267.4063,201.375 269.9063,201.375 Q270.6094,201.375 271.25,201.5313 Q271.9063,201.6875 272.4688,201.9844 L272.4688,204.7031 Q271.8438,204.125 271.25,203.8594 Q270.6563,203.5781 270.0313,203.5781 Q268.6875,203.5781 268,204.6563 Q267.3125,205.7188 267.3125,207.8125 Q267.3125,209.9063 268,210.9844 Q268.6875,212.0469 270.0313,212.0469 Q270.6563,212.0469 271.25,211.7813 Q271.8438,211.5 272.4688,210.9219 L272.4688,213.6406 Z "/><text fill="#000000" font-family="sans-serif" font-size="12" lengthAdjust="spacingAndGlyphs" textLength="156" x="283.5" y="212.1543">chess.model.MaterialInfo</text><!--MD5=[a5930308aaee0be799a70fbfaa6b35b4]
class chess_model_Move--><rect fill="#FEFECE" height="32" id="chess_model_Move" style="stroke: #A80036; stroke-width: 1.5;" width="147" x="478" y="192"/><ellipse cx="493" cy="208" fill="#ADD1B2" rx="11" ry="11" style="stroke: #A80036; stroke-width: 1.0;"/><path d="M495.9688,213.6406 Q495.3906,213.9375 494.75,214.0781 Q494.1094,214.2344 493.4063,214.2344 Q490.9063,214.2344 489.5781,212.5938 Q488.2656,210.9375 488.2656,207.8125 Q488.2656,204.6875 489.5781,203.0313 Q490.9063,201.375 493.4063,201.375 Q494.1094,201.375 494.75,201.5313 Q495.4063,201.6875 495.9688,201.9844 L495.9688,204.7031 Q495.3438,204.125 494.75,203.8594 Q494.1563,203.5781 493.5313,203.5781 Q492.1875,203.5781 491.5,204.6563 Q490.8125,205.7188 490.8125,207.8125 Q490.8125,209.9063 491.5,210.9844 Q492.1875,212.0469 493.5313,212.0469 Q494.1563,212.0469 494.75,211.7813 Q495.3438,211.5 495.9688,210.9219 L495.9688,213.6406 Z "/><text fill="#000000" font-family="sans-serif" font-size="12" lengthAdjust="spacingAndGlyphs" textLength="115" x="507" y="212.1543">chess.model.Move</text><!--MD5=[1a7621125e3f159375bb79423ff561fa]
class chess_model_MoveGenerator--><rect fill="#FEFECE" height="32" id="chess_model_MoveGenerator" style="stroke: #A80036; stroke-width: 1.5;" width="211" x="660" y="192"/><ellipse cx="675" cy="208" fill="#ADD1B2" rx="11" ry="11" style="stroke: #A80036; stroke-width: 1.0;"/><path d="M677.9688,213.6406 Q677.3906,213.9375 676.75,214.0781 Q676.1094,214.2344 675.4063,214.2344 Q672.9063,214.2344 671.5781,212.5938 Q670.2656,210.9375 670.2656,207.8125 Q670.2656,204.6875 671.5781,203.0313 Q672.9063,201.375 675.4063,201.375 Q676.1094,201.375 676.75,201.5313 Q677.4063,201.6875 677.9688,201.9844 L677.9688,204.7031 Q677.3438,204.125 676.75,203.8594 Q676.1563,203.5781 675.5313,203.5781 Q674.1875,203.5781 673.5,204.6563 Q672.8125,205.7188 672.8125,207.8125 Q672.8125,209.9063 673.5,210.9844 Q674.1875,212.0469 675.5313,212.0469 Q676.1563,212.0469 676.75,211.7813 Q677.3438,211.5 677.9688,210.9219 L677.9688,213.6406 Z "/><text fill="#000000" font-family="sans-serif" font-size="12" lengthAdjust="spacingAndGlyphs" textLength="179" x="689" y="212.1543">chess.model.MoveGenerator</text><!--MD5=[184afb7b42837dba038ad4ec61e49533]
class chess_model_Piece--><rect fill="#FEFECE" height="32" id="chess_model_Piece" style="stroke: #A80036; stroke-width: 1.5;" width="149" x="906" y="192"/><ellipse cx="921" cy="208" fill="#ADD1B2" rx="11" ry="11" style="stroke: #A80036; stroke-width: 1.0;"/><path d="M923.9688,213.6406 Q923.3906,213.9375 922.75,214.0781 Q922.1094,214.2344 921.4063,214.2344 Q918.9063,214.2344 917.5781,212.5938 Q916.2656,210.9375 916.2656,207.8125 Q916.2656,204.6875 917.5781,203.0313 Q918.9063,201.375 921.4063,201.375 Q922.1094,201.375 922.75,201.5313 Q923.4063,201.6875 923.9688,201.9844 L923.9688,204.7031 Q923.3438,204.125 922.75,203.8594 Q922.1563,203.5781 921.5313,203.5781 Q920.1875,203.5781 919.5,204.6563 Q918.8125,205.7188 918.8125,207.8125 Q918.8125,209.9063 919.5,210.9844 Q920.1875,212.0469 921.5313,212.0469 Q922.1563,212.0469 922.75,211.7813 Q923.3438,211.5 923.9688,210.9219 L923.9688,213.6406 Z "/><text fill="#000000" font-family="sans-serif" font-size="12" lengthAdjust="spacingAndGlyphs" textLength="117" x="935" y="212.1543">chess.model.Piece</text><!--MD5=[897c90cebb5e9d99cf508a323000dd6e]
class chess_model_PieceType--><rect fill="#FEFECE" height="32" id="chess_model_PieceType" style="stroke: #A80036; stroke-width: 1.5;" width="178" x="34.5" y="284"/><ellipse cx="49.5" cy="300" fill="#EB937F" rx="11" ry="11" style="stroke: #A80036; stroke-width: 1.0;"/><path d="M53.6094,306 L45.8906,306 L45.8906,293.6094 L53.6094,293.6094 L53.6094,295.7656 L48.3438,295.7656 L48.3438,298.4375 L53.1094,298.4375 L53.1094,300.5938 L48.3438,300.5938 L48.3438,303.8438 L53.6094,303.8438 L53.6094,306 Z "/><text fill="#000000" font-family="sans-serif" font-size="12" lengthAdjust="spacingAndGlyphs" textLength="146" x="63.5" y="304.1543">chess.model.PieceType</text><!--MD5=[470ef9f084ffee687ace5e342c575635]
class chess_model_PlayerInfo--><rect fill="#FEFECE" height="32" id="chess_model_PlayerInfo" style="stroke: #A80036; stroke-width: 1.5;" width="176" x="247.5" y="284"/><ellipse cx="262.5" cy="300" fill="#ADD1B2" rx="11" ry="11" style="stroke: #A80036; stroke-width: 1.0;"/><path d="M265.4688,305.6406 Q264.8906,305.9375 264.25,306.0781 Q263.6094,306.2344 262.9063,306.2344 Q260.4063,306.2344 259.0781,304.5938 Q257.7656,302.9375 257.7656,299.8125 Q257.7656,296.6875 259.0781,295.0313 Q260.4063,293.375 262.9063,293.375 Q263.6094,293.375 264.25,293.5313 Q264.9063,293.6875 265.4688,293.9844 L265.4688,296.7031 Q264.8438,296.125 264.25,295.8594 Q263.6563,295.5781 263.0313,295.5781 Q261.6875,295.5781 261,296.6563 Q260.3125,297.7188 260.3125,299.8125 Q260.3125,301.9063 261,302.9844 Q261.6875,304.0469 263.0313,304.0469 Q263.6563,304.0469 264.25,303.7813 Q264.8438,303.5 265.4688,302.9219 L265.4688,305.6406 Z "/><text fill="#000000" font-family="sans-serif" font-size="12" lengthAdjust="spacingAndGlyphs" textLength="144" x="276.5" y="304.1543">chess.model.PlayerInfo</text><!--MD5=[ae321ea151c45b245290d7b9fb5e2116]
class chess_model_Pos--><rect fill="#FEFECE" height="32" id="chess_model_Pos" style="stroke: #A80036; stroke-width: 1.5;" width="138" x="458.5" y="284"/><ellipse cx="473.5" cy="300" fill="#ADD1B2" rx="11" ry="11" style="stroke: #A80036; stroke-width: 1.0;"/><path d="M476.4688,305.6406 Q475.8906,305.9375 475.25,306.0781 Q474.6094,306.2344 473.9063,306.2344 Q471.4063,306.2344 470.0781,304.5938 Q468.7656,302.9375 468.7656,299.8125 Q468.7656,296.6875 470.0781,295.0313 Q471.4063,293.375 473.9063,293.375 Q474.6094,293.375 475.25,293.5313 Q475.9063,293.6875 476.4688,293.9844 L476.4688,296.7031 Q475.8438,296.125 475.25,295.8594 Q474.6563,295.5781 474.0313,295.5781 Q472.6875,295.5781 472,296.6563 Q471.3125,297.7188 471.3125,299.8125 Q471.3125,301.9063 472,302.9844 Q472.6875,304.0469 474.0313,304.0469 Q474.6563,304.0469 475.25,303.7813 Q475.8438,303.5 476.4688,302.9219 L476.4688,305.6406 Z "/><text fill="#000000" font-family="sans-serif" font-size="12" lengthAdjust="spacingAndGlyphs" textLength="106" x="487.5" y="304.1543">chess.model.Pos</text><!--MD5=[708bf6addf88aa93ec80a5fcf9b88838]
class chess_model_TimeControl--><rect fill="#FEFECE" height="32" id="chess_model_TimeControl" style="stroke: #A80036; stroke-width: 1.5;" width="189" x="632" y="284"/><ellipse cx="647" cy="300" fill="#ADD1B2" rx="11" ry="11" style="stroke: #A80036; stroke-width: 1.0;"/><path d="M649.9688,305.6406 Q649.3906,305.9375 648.75,306.0781 Q648.1094,306.2344 647.4063,306.2344 Q644.9063,306.2344 643.5781,304.5938 Q642.2656,302.9375 642.2656,299.8125 Q642.2656,296.6875 643.5781,295.0313 Q644.9063,293.375 647.4063,293.375 Q648.1094,293.375 648.75,293.5313 Q649.4063,293.6875 649.9688,293.9844 L649.9688,296.7031 Q649.3438,296.125 648.75,295.8594 Q648.1563,295.5781 647.5313,295.5781 Q646.1875,295.5781 645.5,296.6563 Q644.8125,297.7188 644.8125,299.8125 Q644.8125,301.9063 645.5,302.9844 Q646.1875,304.0469 647.5313,304.0469 Q648.1563,304.0469 648.75,303.7813 Q649.3438,303.5 649.9688,302.9219 L649.9688,305.6406 Z "/><text fill="#000000" font-family="sans-serif" font-size="12" lengthAdjust="spacingAndGlyphs" textLength="157" x="661" y="304.1543">chess.model.TimeControl</text><!--MD5=[fe601b0dde326503c3dc4c171a4ee829]
class chess_model_WhiteToMove--><rect fill="#FEFECE" height="32" id="chess_model_WhiteToMove" style="stroke: #A80036; stroke-width: 1.5;" width="197" x="856" y="284"/><ellipse cx="871" cy="300" fill="#ADD1B2" rx="11" ry="11" style="stroke: #A80036; stroke-width: 1.0;"/><path d="M873.9688,305.6406 Q873.3906,305.9375 872.75,306.0781 Q872.1094,306.2344 871.4063,306.2344 Q868.9063,306.2344 867.5781,304.5938 Q866.2656,302.9375 866.2656,299.8125 Q866.2656,296.6875 867.5781,295.0313 Q868.9063,293.375 871.4063,293.375 Q872.1094,293.375 872.75,293.5313 Q873.4063,293.6875 873.9688,293.9844 L873.9688,296.7031 Q873.3438,296.125 872.75,295.8594 Q872.1563,295.5781 871.5313,295.5781 Q870.1875,295.5781 869.5,296.6563 Q868.8125,297.7188 868.8125,299.8125 Q868.8125,301.9063 869.5,302.9844 Q870.1875,304.0469 871.5313,304.0469 Q872.1563,304.0469 872.75,303.7813 Q873.3438,303.5 873.9688,302.9219 L873.9688,305.6406 Z "/><text fill="#000000" font-family="sans-serif" font-size="12" lengthAdjust="spacingAndGlyphs" textLength="165" x="885" y="304.1543">chess.model.WhiteToMove</text><!--MD5=[8285d2afb3a58f9ed7c5e0e8f024bd19]
class chess_util_Failure--><rect fill="#FEFECE" height="32" id="chess_util_Failure" style="stroke: #A80036; stroke-width: 1.5;" width="138" x="3829.5" y="8"/><ellipse cx="3844.5" cy="24" fill="#ADD1B2" rx="11" ry="11" style="stroke: #A80036; stroke-width: 1.0;"/><path d="M3847.4688,29.6406 Q3846.8906,29.9375 3846.25,30.0781 Q3845.6094,30.2344 3844.9063,30.2344 Q3842.4063,30.2344 3841.0781,28.5938 Q3839.7656,26.9375 3839.7656,23.8125 Q3839.7656,20.6875 3841.0781,19.0313 Q3842.4063,17.375 3844.9063,17.375 Q3845.6094,17.375 3846.25,17.5313 Q3846.9063,17.6875 3847.4688,17.9844 L3847.4688,20.7031 Q3846.8438,20.125 3846.25,19.8594 Q3845.6563,19.5781 3845.0313,19.5781 Q3843.6875,19.5781 3843,20.6563 Q3842.3125,21.7188 3842.3125,23.8125 Q3842.3125,25.9063 3843,26.9844 Q3843.6875,28.0469 3845.0313,28.0469 Q3845.6563,28.0469 3846.25,27.7813 Q3846.8438,27.5 3847.4688,26.9219 L3847.4688,29.6406 Z "/><text fill="#000000" font-family="sans-serif" font-size="12" lengthAdjust="spacingAndGlyphs" textLength="106" x="3858.5" y="28.1543">chess.util.Failure</text><!--MD5=[7fca2889ffeef26e23476b64e754c371]
class chess_util_Observable--><rect fill="#FEFECE" height="32" id="chess_util_Observable" style="stroke: #A80036; stroke-width: 1.5;" width="162" x="1540.5" y="192"/><ellipse cx="1555.5" cy="208" fill="#B4A7E5" rx="11" ry="11" style="stroke: #A80036; stroke-width: 1.0;"/><path d="M1551.4219,203.7656 L1551.4219,201.6094 L1558.8125,201.6094 L1558.8125,203.7656 L1556.3438,203.7656 L1556.3438,211.8438 L1558.8125,211.8438 L1558.8125,214 L1551.4219,214 L1551.4219,211.8438 L1553.8906,211.8438 L1553.8906,203.7656 L1551.4219,203.7656 Z "/><text fill="#000000" font-family="sans-serif" font-size="12" font-style="italic" lengthAdjust="spacingAndGlyphs" textLength="130" x="1569.5" y="212.1543">chess.util.Observable</text><!--MD5=[53ec3d88f5df3b828279658fe5478411]
class chess_util_Observer--><rect fill="#FEFECE" height="32" id="chess_util_Observer" style="stroke: #A80036; stroke-width: 1.5;" width="148" x="1737.5" y="192"/><ellipse cx="1752.5" cy="208" fill="#B4A7E5" rx="11" ry="11" style="stroke: #A80036; stroke-width: 1.0;"/><path d="M1748.4219,203.7656 L1748.4219,201.6094 L1755.8125,201.6094 L1755.8125,203.7656 L1753.3438,203.7656 L1753.3438,211.8438 L1755.8125,211.8438 L1755.8125,214 L1748.4219,214 L1748.4219,211.8438 L1750.8906,211.8438 L1750.8906,203.7656 L1748.4219,203.7656 Z "/><text fill="#000000" font-family="sans-serif" font-size="12" font-style="italic" lengthAdjust="spacingAndGlyphs" textLength="116" x="1766.5" y="212.1543">chess.util.Observer</text><!--MD5=[c9f02e34428ef2a62a97e1f604b9ee82]
class chess_util_Pgn--><rect fill="#FEFECE" height="32" id="chess_util_Pgn" style="stroke: #A80036; stroke-width: 1.5;" width="120" x="3317.5" y="192"/><ellipse cx="3332.5" cy="208" fill="#ADD1B2" rx="11" ry="11" style="stroke: #A80036; stroke-width: 1.0;"/><path d="M3335.4688,213.6406 Q3334.8906,213.9375 3334.25,214.0781 Q3333.6094,214.2344 3332.9063,214.2344 Q3330.4063,214.2344 3329.0781,212.5938 Q3327.7656,210.9375 3327.7656,207.8125 Q3327.7656,204.6875 3329.0781,203.0313 Q3330.4063,201.375 3332.9063,201.375 Q3333.6094,201.375 3334.25,201.5313 Q3334.9063,201.6875 3335.4688,201.9844 L3335.4688,204.7031 Q3334.8438,204.125 3334.25,203.8594 Q3333.6563,203.5781 3333.0313,203.5781 Q3331.6875,203.5781 3331,204.6563 Q3330.3125,205.7188 3330.3125,207.8125 Q3330.3125,209.9063 3331,210.9844 Q3331.6875,212.0469 3333.0313,212.0469 Q3333.6563,212.0469 3334.25,211.7813 Q3334.8438,211.5 3335.4688,210.9219 L3335.4688,213.6406 Z "/><text fill="#000000" font-family="sans-serif" font-size="12" lengthAdjust="spacingAndGlyphs" textLength="88" x="3346.5" y="212.1543">chess.util.Pgn</text><!--MD5=[07321d09eff8c74bad3800c0c49a6dfd]
class chess_util_Result--><rect fill="#FEFECE" height="32" id="chess_util_Result" style="stroke: #A80036; stroke-width: 1.5;" width="132" x="3921.5" y="100"/><ellipse cx="3936.5" cy="116" fill="#B4A7E5" rx="11" ry="11" style="stroke: #A80036; stroke-width: 1.0;"/><path d="M3932.4219,111.7656 L3932.4219,109.6094 L3939.8125,109.6094 L3939.8125,111.7656 L3937.3438,111.7656 L3937.3438,119.8438 L3939.8125,119.8438 L3939.8125,122 L3932.4219,122 L3932.4219,119.8438 L3934.8906,119.8438 L3934.8906,111.7656 L3932.4219,111.7656 Z "/><text fill="#000000" font-family="sans-serif" font-size="12" font-style="italic" lengthAdjust="spacingAndGlyphs" textLength="100" x="3950.5" y="120.1543">chess.util.Result</text><!--MD5=[e006c34452df83ce1a1c4e6f5f94fa8e]
class chess_util_Success--><rect fill="#FEFECE" height="32" id="chess_util_Success" style="stroke: #A80036; stroke-width: 1.5;" width="148" x="4002.5" y="8"/><ellipse cx="4017.5" cy="24" fill="#ADD1B2" rx="11" ry="11" style="stroke: #A80036; stroke-width: 1.0;"/><path d="M4020.4688,29.6406 Q4019.8906,29.9375 4019.25,30.0781 Q4018.6094,30.2344 4017.9063,30.2344 Q4015.4063,30.2344 4014.0781,28.5938 Q4012.7656,26.9375 4012.7656,23.8125 Q4012.7656,20.6875 4014.0781,19.0313 Q4015.4063,17.375 4017.9063,17.375 Q4018.6094,17.375 4019.25,17.5313 Q4019.9063,17.6875 4020.4688,17.9844 L4020.4688,20.7031 Q4019.8438,20.125 4019.25,19.8594 Q4018.6563,19.5781 4018.0313,19.5781 Q4016.6875,19.5781 4016,20.6563 Q4015.3125,21.7188 4015.3125,23.8125 Q4015.3125,25.9063 4016,26.9844 Q4016.6875,28.0469 4018.0313,28.0469 Q4018.6563,28.0469 4019.25,27.7813 Q4019.8438,27.5 4020.4688,26.9219 L4020.4688,29.6406 Z "/><text fill="#000000" font-family="sans-serif" font-size="12" lengthAdjust="spacingAndGlyphs" textLength="116" x="4031.5" y="28.1543">chess.util.Success</text><!--MD5=[45652b621d798e1f8a838763709bf6d5]
class chess_util_parser_CombinatorPgnParser--><rect fill="#FEFECE" height="32" id="chess_util_parser_CombinatorPgnParser" style="stroke: #A80036; stroke-width: 1.5;" width="278" x="2816.5" y="100"/><ellipse cx="2831.5" cy="116" fill="#ADD1B2" rx="11" ry="11" style="stroke: #A80036; stroke-width: 1.0;"/><path d="M2834.4688,121.6406 Q2833.8906,121.9375 2833.25,122.0781 Q2832.6094,122.2344 2831.9063,122.2344 Q2829.4063,122.2344 2828.0781,120.5938 Q2826.7656,118.9375 2826.7656,115.8125 Q2826.7656,112.6875 2828.0781,111.0313 Q2829.4063,109.375 2831.9063,109.375 Q2832.6094,109.375 2833.25,109.5313 Q2833.9063,109.6875 2834.4688,109.9844 L2834.4688,112.7031 Q2833.8438,112.125 2833.25,111.8594 Q2832.6563,111.5781 2832.0313,111.5781 Q2830.6875,111.5781 2830,112.6563 Q2829.3125,113.7188 2829.3125,115.8125 Q2829.3125,117.9063 2830,118.9844 Q2830.6875,120.0469 2832.0313,120.0469 Q2832.6563,120.0469 2833.25,119.7813 Q2833.8438,119.5 2834.4688,118.9219 L2834.4688,121.6406 Z "/><text fill="#000000" font-family="sans-serif" font-size="12" lengthAdjust="spacingAndGlyphs" textLength="246" x="2845.5" y="120.1543">chess.util.parser.CombinatorPgnParser</text><!--MD5=[7df01c5a1f065712c7c9303b6310a918]
class chess_util_parser_CoordinateMoveParser--><rect fill="#FEFECE" height="32" id="chess_util_parser_CoordinateMoveParser" style="stroke: #A80036; stroke-width: 1.5;" width="283" x="2967" y="8"/><ellipse cx="2982" cy="24" fill="#ADD1B2" rx="11" ry="11" style="stroke: #A80036; stroke-width: 1.0;"/><path d="M2984.9688,29.6406 Q2984.3906,29.9375 2983.75,30.0781 Q2983.1094,30.2344 2982.4063,30.2344 Q2979.9063,30.2344 2978.5781,28.5938 Q2977.2656,26.9375 2977.2656,23.8125 Q2977.2656,20.6875 2978.5781,19.0313 Q2979.9063,17.375 2982.4063,17.375 Q2983.1094,17.375 2983.75,17.5313 Q2984.4063,17.6875 2984.9688,17.9844 L2984.9688,20.7031 Q2984.3438,20.125 2983.75,19.8594 Q2983.1563,19.5781 2982.5313,19.5781 Q2981.1875,19.5781 2980.5,20.6563 Q2979.8125,21.7188 2979.8125,23.8125 Q2979.8125,25.9063 2980.5,26.9844 Q2981.1875,28.0469 2982.5313,28.0469 Q2983.1563,28.0469 2983.75,27.7813 Q2984.3438,27.5 2984.9688,26.9219 L2984.9688,29.6406 Z "/><text fill="#000000" font-family="sans-serif" font-size="12" lengthAdjust="spacingAndGlyphs" textLength="251" x="2996" y="28.1543">chess.util.parser.CoordinateMoveParser</text><!--MD5=[105ef21fe4926c78289e2091402541ee]
class chess_util_parser_DelegatingPgnParser--><rect fill="#FEFECE" height="32" id="chess_util_parser_DelegatingPgnParser" style="stroke: #A80036; stroke-width: 1.5;" width="274" x="2937.5" y="192"/><ellipse cx="2952.5" cy="208" fill="#ADD1B2" rx="11" ry="11" style="stroke: #A80036; stroke-width: 1.0;"/><path d="M2955.4688,213.6406 Q2954.8906,213.9375 2954.25,214.0781 Q2953.6094,214.2344 2952.9063,214.2344 Q2950.4063,214.2344 2949.0781,212.5938 Q2947.7656,210.9375 2947.7656,207.8125 Q2947.7656,204.6875 2949.0781,203.0313 Q2950.4063,201.375 2952.9063,201.375 Q2953.6094,201.375 2954.25,201.5313 Q2954.9063,201.6875 2955.4688,201.9844 L2955.4688,204.7031 Q2954.8438,204.125 2954.25,203.8594 Q2953.6563,203.5781 2953.0313,203.5781 Q2951.6875,203.5781 2951,204.6563 Q2950.3125,205.7188 2950.3125,207.8125 Q2950.3125,209.9063 2951,210.9844 Q2951.6875,212.0469 2953.0313,212.0469 Q2953.6563,212.0469 2954.25,211.7813 Q2954.8438,211.5 2955.4688,210.9219 L2955.4688,213.6406 Z "/><text fill="#000000" font-family="sans-serif" font-size="12" lengthAdjust="spacingAndGlyphs" textLength="242" x="2966.5" y="212.1543">chess.util.parser.DelegatingPgnParser</text><!--MD5=[48888cea9c29240faa6fb98a31f13b55]
class chess_util_parser_FastPgnParser--><rect fill="#FEFECE" height="32" id="chess_util_parser_FastPgnParser" style="stroke: #A80036; stroke-width: 1.5;" width="233" x="3374" y="100"/><ellipse cx="3389" cy="116" fill="#ADD1B2" rx="11" ry="11" style="stroke: #A80036; stroke-width: 1.0;"/><path d="M3391.9688,121.6406 Q3391.3906,121.9375 3390.75,122.0781 Q3390.1094,122.2344 3389.4063,122.2344 Q3386.9063,122.2344 3385.5781,120.5938 Q3384.2656,118.9375 3384.2656,115.8125 Q3384.2656,112.6875 3385.5781,111.0313 Q3386.9063,109.375 3389.4063,109.375 Q3390.1094,109.375 3390.75,109.5313 Q3391.4063,109.6875 3391.9688,109.9844 L3391.9688,112.7031 Q3391.3438,112.125 3390.75,111.8594 Q3390.1563,111.5781 3389.5313,111.5781 Q3388.1875,111.5781 3387.5,112.6563 Q3386.8125,113.7188 3386.8125,115.8125 Q3386.8125,117.9063 3387.5,118.9844 Q3388.1875,120.0469 3389.5313,120.0469 Q3390.1563,120.0469 3390.75,119.7813 Q3391.3438,119.5 3391.9688,118.9219 L3391.9688,121.6406 Z "/><text fill="#000000" font-family="sans-serif" font-size="12" lengthAdjust="spacingAndGlyphs" textLength="201" x="3403" y="120.1543">chess.util.parser.FastPgnParser</text><!--MD5=[d04d53180b3228422b664d899f510d4a]
class chess_util_parser_MoveParser--><rect fill="#FEFECE" height="32" id="chess_util_parser_MoveParser" style="stroke: #A80036; stroke-width: 1.5;" width="209" x="3130" y="100"/><ellipse cx="3145" cy="116" fill="#B4A7E5" rx="11" ry="11" style="stroke: #A80036; stroke-width: 1.0;"/><path d="M3140.9219,111.7656 L3140.9219,109.6094 L3148.3125,109.6094 L3148.3125,111.7656 L3145.8438,111.7656 L3145.8438,119.8438 L3148.3125,119.8438 L3148.3125,122 L3140.9219,122 L3140.9219,119.8438 L3143.3906,119.8438 L3143.3906,111.7656 L3140.9219,111.7656 Z "/><text fill="#000000" font-family="sans-serif" font-size="12" font-style="italic" lengthAdjust="spacingAndGlyphs" textLength="177" x="3159" y="120.1543">chess.util.parser.MoveParser</text><!--MD5=[6ff420e7964b838175a4b24a0e4c0ebc]
class chess_util_parser_ParserRegistry--><rect fill="#FEFECE" height="32" id="chess_util_parser_ParserRegistry" style="stroke: #A80036; stroke-width: 1.5;" width="232" x="2272.5" y="192"/><ellipse cx="2287.5" cy="208" fill="#ADD1B2" rx="11" ry="11" style="stroke: #A80036; stroke-width: 1.0;"/><path d="M2290.4688,213.6406 Q2289.8906,213.9375 2289.25,214.0781 Q2288.6094,214.2344 2287.9063,214.2344 Q2285.4063,214.2344 2284.0781,212.5938 Q2282.7656,210.9375 2282.7656,207.8125 Q2282.7656,204.6875 2284.0781,203.0313 Q2285.4063,201.375 2287.9063,201.375 Q2288.6094,201.375 2289.25,201.5313 Q2289.9063,201.6875 2290.4688,201.9844 L2290.4688,204.7031 Q2289.8438,204.125 2289.25,203.8594 Q2288.6563,203.5781 2288.0313,203.5781 Q2286.6875,203.5781 2286,204.6563 Q2285.3125,205.7188 2285.3125,207.8125 Q2285.3125,209.9063 2286,210.9844 Q2286.6875,212.0469 2288.0313,212.0469 Q2288.6563,212.0469 2289.25,211.7813 Q2289.8438,211.5 2290.4688,210.9219 L2290.4688,213.6406 Z "/><text fill="#000000" font-family="sans-serif" font-size="12" lengthAdjust="spacingAndGlyphs" textLength="200" x="2301.5" y="212.1543">chess.util.parser.ParserRegistry</text><!--MD5=[0ece8c1f056bff7632e1dc303548ceab]
class chess_util_parser_PgnParser--><rect fill="#FEFECE" height="32" id="chess_util_parser_PgnParser" style="stroke: #A80036; stroke-width: 1.5;" width="200" x="3220.5" y="284"/><ellipse cx="3235.5" cy="300" fill="#B4A7E5" rx="11" ry="11" style="stroke: #A80036; stroke-width: 1.0;"/><path d="M3231.4219,295.7656 L3231.4219,293.6094 L3238.8125,293.6094 L3238.8125,295.7656 L3236.3438,295.7656 L3236.3438,303.8438 L3238.8125,303.8438 L3238.8125,306 L3231.4219,306 L3231.4219,303.8438 L3233.8906,303.8438 L3233.8906,295.7656 L3231.4219,295.7656 Z "/><text fill="#000000" font-family="sans-serif" font-size="12" font-style="italic" lengthAdjust="spacingAndGlyphs" textLength="168" x="3249.5" y="304.1543">chess.util.parser.PgnParser</text><!--MD5=[5793b5a0e18d7fd70573d5b30d0bca18]
class chess_util_parser_RegexPgnParser--><rect fill="#FEFECE" height="32" id="chess_util_parser_RegexPgnParser" style="stroke: #A80036; stroke-width: 1.5;" width="244" x="3642.5" y="100"/><ellipse cx="3657.5" cy="116" fill="#ADD1B2" rx="11" ry="11" style="stroke: #A80036; stroke-width: 1.0;"/><path d="M3660.4688,121.6406 Q3659.8906,121.9375 3659.25,122.0781 Q3658.6094,122.2344 3657.9063,122.2344 Q3655.4063,122.2344 3654.0781,120.5938 Q3652.7656,118.9375 3652.7656,115.8125 Q3652.7656,112.6875 3654.0781,111.0313 Q3655.4063,109.375 3657.9063,109.375 Q3658.6094,109.375 3659.25,109.5313 Q3659.9063,109.6875 3660.4688,109.9844 L3660.4688,112.7031 Q3659.8438,112.125 3659.25,111.8594 Q3658.6563,111.5781 3658.0313,111.5781 Q3656.6875,111.5781 3656,112.6563 Q3655.3125,113.7188 3655.3125,115.8125 Q3655.3125,117.9063 3656,118.9844 Q3656.6875,120.0469 3658.0313,120.0469 Q3658.6563,120.0469 3659.25,119.7813 Q3659.8438,119.5 3660.4688,118.9219 L3660.4688,121.6406 Z "/><text fill="#000000" font-family="sans-serif" font-size="12" lengthAdjust="spacingAndGlyphs" textLength="212" x="3671.5" y="120.1543">chess.util.parser.RegexPgnParser</text><!--MD5=[4f1a5fe61326b13c1f6a13b86727e0e9]
class chess_util_parser_SanMoveParser--><rect fill="#FEFECE" height="32" id="chess_util_parser_SanMoveParser" style="stroke: #A80036; stroke-width: 1.5;" width="238" x="3285.5" y="8"/><ellipse cx="3300.5" cy="24" fill="#ADD1B2" rx="11" ry="11" style="stroke: #A80036; stroke-width: 1.0;"/><path d="M3303.4688,29.6406 Q3302.8906,29.9375 3302.25,30.0781 Q3301.6094,30.2344 3300.9063,30.2344 Q3298.4063,30.2344 3297.0781,28.5938 Q3295.7656,26.9375 3295.7656,23.8125 Q3295.7656,20.6875 3297.0781,19.0313 Q3298.4063,17.375 3300.9063,17.375 Q3301.6094,17.375 3302.25,17.5313 Q3302.9063,17.6875 3303.4688,17.9844 L3303.4688,20.7031 Q3302.8438,20.125 3302.25,19.8594 Q3301.6563,19.5781 3301.0313,19.5781 Q3299.6875,19.5781 3299,20.6563 Q3298.3125,21.7188 3298.3125,23.8125 Q3298.3125,25.9063 3299,26.9844 Q3299.6875,28.0469 3301.0313,28.0469 Q3301.6563,28.0469 3302.25,27.7813 Q3302.8438,27.5 3303.4688,26.9219 L3303.4688,29.6406 Z "/><text fill="#000000" font-family="sans-serif" font-size="12" lengthAdjust="spacingAndGlyphs" textLength="206" x="3314.5" y="28.1543">chess.util.parser.SanMoveParser</text><!--MD5=[c07b8a88a1f3f37d5ef93be2885cdc4f]
class chess_view_CommandParser--><rect fill="#FEFECE" height="32" id="chess_view_CommandParser" style="stroke: #A80036; stroke-width: 1.5;" width="206" x="2410.5" y="100"/><ellipse cx="2425.5" cy="116" fill="#ADD1B2" rx="11" ry="11" style="stroke: #A80036; stroke-width: 1.0;"/><path d="M2428.4688,121.6406 Q2427.8906,121.9375 2427.25,122.0781 Q2426.6094,122.2344 2425.9063,122.2344 Q2423.4063,122.2344 2422.0781,120.5938 Q2420.7656,118.9375 2420.7656,115.8125 Q2420.7656,112.6875 2422.0781,111.0313 Q2423.4063,109.375 2425.9063,109.375 Q2426.6094,109.375 2427.25,109.5313 Q2427.9063,109.6875 2428.4688,109.9844 L2428.4688,112.7031 Q2427.8438,112.125 2427.25,111.8594 Q2426.6563,111.5781 2426.0313,111.5781 Q2424.6875,111.5781 2424,112.6563 Q2423.3125,113.7188 2423.3125,115.8125 Q2423.3125,117.9063 2424,118.9844 Q2424.6875,120.0469 2426.0313,120.0469 Q2426.6563,120.0469 2427.25,119.7813 Q2427.8438,119.5 2428.4688,118.9219 L2428.4688,121.6406 Z "/><text fill="#000000" font-family="sans-serif" font-size="12" lengthAdjust="spacingAndGlyphs" textLength="174" x="2439.5" y="120.1543">chess.view.CommandParser</text><!--MD5=[bedbdb50f1f0f0767bf1cdda00584718]
class chess_view_CommandRequest--><rect fill="#FEFECE" height="32" id="chess_view_CommandRequest" style="stroke: #A80036; stroke-width: 1.5;" width="217" x="1703" y="100"/><ellipse cx="1718" cy="116" fill="#ADD1B2" rx="11" ry="11" style="stroke: #A80036; stroke-width: 1.0;"/><path d="M1720.9688,121.6406 Q1720.3906,121.9375 1719.75,122.0781 Q1719.1094,122.2344 1718.4063,122.2344 Q1715.9063,122.2344 1714.5781,120.5938 Q1713.2656,118.9375 1713.2656,115.8125 Q1713.2656,112.6875 1714.5781,111.0313 Q1715.9063,109.375 1718.4063,109.375 Q1719.1094,109.375 1719.75,109.5313 Q1720.4063,109.6875 1720.9688,109.9844 L1720.9688,112.7031 Q1720.3438,112.125 1719.75,111.8594 Q1719.1563,111.5781 1718.5313,111.5781 Q1717.1875,111.5781 1716.5,112.6563 Q1715.8125,113.7188 1715.8125,115.8125 Q1715.8125,117.9063 1716.5,118.9844 Q1717.1875,120.0469 1718.5313,120.0469 Q1719.1563,120.0469 1719.75,119.7813 Q1720.3438,119.5 1720.9688,118.9219 L1720.9688,121.6406 Z "/><text fill="#000000" font-family="sans-serif" font-size="12" lengthAdjust="spacingAndGlyphs" textLength="185" x="1732" y="120.1543">chess.view.CommandRequest</text><!--MD5=[ad8a67e8741d24921d252fb71d7be7d7]
class chess_view_ConsoleIO--><rect fill="#FEFECE" height="32" id="chess_view_ConsoleIO" style="stroke: #A80036; stroke-width: 1.5;" width="163" x="1955" y="100"/><ellipse cx="1970" cy="116" fill="#B4A7E5" rx="11" ry="11" style="stroke: #A80036; stroke-width: 1.0;"/><path d="M1965.9219,111.7656 L1965.9219,109.6094 L1973.3125,109.6094 L1973.3125,111.7656 L1970.8438,111.7656 L1970.8438,119.8438 L1973.3125,119.8438 L1973.3125,122 L1965.9219,122 L1965.9219,119.8438 L1968.3906,119.8438 L1968.3906,111.7656 L1965.9219,111.7656 Z "/><text fill="#000000" font-family="sans-serif" font-size="12" font-style="italic" lengthAdjust="spacingAndGlyphs" textLength="131" x="1984" y="120.1543">chess.view.ConsoleIO</text><!--MD5=[a77a23865ccde52e4661f044d1d2ee85]
class chess_view_GameStateResponse--><rect fill="#FEFECE" height="32" id="chess_view_GameStateResponse" style="stroke: #A80036; stroke-width: 1.5;" width="235" x="6" y="376"/><ellipse cx="21" cy="392" fill="#ADD1B2" rx="11" ry="11" style="stroke: #A80036; stroke-width: 1.0;"/><path d="M23.9688,397.6406 Q23.3906,397.9375 22.75,398.0781 Q22.1094,398.2344 21.4063,398.2344 Q18.9063,398.2344 17.5781,396.5938 Q16.2656,394.9375 16.2656,391.8125 Q16.2656,388.6875 17.5781,387.0313 Q18.9063,385.375 21.4063,385.375 Q22.1094,385.375 22.75,385.5313 Q23.4063,385.6875 23.9688,385.9844 L23.9688,388.7031 Q23.3438,388.125 22.75,387.8594 Q22.1563,387.5781 21.5313,387.5781 Q20.1875,387.5781 19.5,388.6563 Q18.8125,389.7188 18.8125,391.8125 Q18.8125,393.9063 19.5,394.9844 Q20.1875,396.0469 21.5313,396.0469 Q22.1563,396.0469 22.75,395.7813 Q23.3438,395.5 23.9688,394.9219 L23.9688,397.6406 Z "/><text fill="#000000" font-family="sans-serif" font-size="12" lengthAdjust="spacingAndGlyphs" textLength="203" x="35" y="396.1543">chess.view.GameStateResponse</text><!--MD5=[d673f3264384dfed5cc3d7501fb6f789]
class chess_view_Gui--><rect fill="#FEFECE" height="32" id="chess_view_Gui" style="stroke: #A80036; stroke-width: 1.5;" width="123" x="276" y="376"/><ellipse cx="291" cy="392" fill="#ADD1B2" rx="11" ry="11" style="stroke: #A80036; stroke-width: 1.0;"/><path d="M293.9688,397.6406 Q293.3906,397.9375 292.75,398.0781 Q292.1094,398.2344 291.4063,398.2344 Q288.9063,398.2344 287.5781,396.5938 Q286.2656,394.9375 286.2656,391.8125 Q286.2656,388.6875 287.5781,387.0313 Q288.9063,385.375 291.4063,385.375 Q292.1094,385.375 292.75,385.5313 Q293.4063,385.6875 293.9688,385.9844 L293.9688,388.7031 Q293.3438,388.125 292.75,387.8594 Q292.1563,387.5781 291.5313,387.5781 Q290.1875,387.5781 289.5,388.6563 Q288.8125,389.7188 288.8125,391.8125 Q288.8125,393.9063 289.5,394.9844 Q290.1875,396.0469 291.5313,396.0469 Q292.1563,396.0469 292.75,395.7813 Q293.3438,395.5 293.9688,394.9219 L293.9688,397.6406 Z "/><text fill="#000000" font-family="sans-serif" font-size="12" lengthAdjust="spacingAndGlyphs" textLength="91" x="305" y="396.1543">chess.view.Gui</text><!--MD5=[89b66af3e503a63915fe7282d598cd62]
class chess_view_JaviClient--><rect fill="#FEFECE" height="32" id="chess_view_JaviClient" style="stroke: #A80036; stroke-width: 1.5;" width="158" x="434.5" y="376"/><ellipse cx="449.5" cy="392" fill="#ADD1B2" rx="11" ry="11" style="stroke: #A80036; stroke-width: 1.0;"/><path d="M452.4688,397.6406 Q451.8906,397.9375 451.25,398.0781 Q450.6094,398.2344 449.9063,398.2344 Q447.4063,398.2344 446.0781,396.5938 Q444.7656,394.9375 444.7656,391.8125 Q444.7656,388.6875 446.0781,387.0313 Q447.4063,385.375 449.9063,385.375 Q450.6094,385.375 451.25,385.5313 Q451.9063,385.6875 452.4688,385.9844 L452.4688,388.7031 Q451.8438,388.125 451.25,387.8594 Q450.6563,387.5781 450.0313,387.5781 Q448.6875,387.5781 448,388.6563 Q447.3125,389.7188 447.3125,391.8125 Q447.3125,393.9063 448,394.9844 Q448.6875,396.0469 450.0313,396.0469 Q450.6563,396.0469 451.25,395.7813 Q451.8438,395.5 452.4688,394.9219 L452.4688,397.6406 Z "/><text fill="#000000" font-family="sans-serif" font-size="12" lengthAdjust="spacingAndGlyphs" textLength="126" x="463.5" y="396.1543">chess.view.JaviClient</text><!--MD5=[1ac7ec642b8bf85c859747a04d4ca25d]
class chess_view_RestApi--><rect fill="#FEFECE" height="32" id="chess_view_RestApi" style="stroke: #A80036; stroke-width: 1.5;" width="150" x="1362.5" y="100"/><ellipse cx="1377.5" cy="116" fill="#ADD1B2" rx="11" ry="11" style="stroke: #A80036; stroke-width: 1.0;"/><path d="M1380.4688,121.6406 Q1379.8906,121.9375 1379.25,122.0781 Q1378.6094,122.2344 1377.9063,122.2344 Q1375.4063,122.2344 1374.0781,120.5938 Q1372.7656,118.9375 1372.7656,115.8125 Q1372.7656,112.6875 1374.0781,111.0313 Q1375.4063,109.375 1377.9063,109.375 Q1378.6094,109.375 1379.25,109.5313 Q1379.9063,109.6875 1380.4688,109.9844 L1380.4688,112.7031 Q1379.8438,112.125 1379.25,111.8594 Q1378.6563,111.5781 1378.0313,111.5781 Q1376.6875,111.5781 1376,112.6563 Q1375.3125,113.7188 1375.3125,115.8125 Q1375.3125,117.9063 1376,118.9844 Q1376.6875,120.0469 1378.0313,120.0469 Q1378.6563,120.0469 1379.25,119.7813 Q1379.8438,119.5 1380.4688,118.9219 L1380.4688,121.6406 Z "/><text fill="#000000" font-family="sans-serif" font-size="12" lengthAdjust="spacingAndGlyphs" textLength="118" x="1391.5" y="120.1543">chess.view.RestApi</text><!--MD5=[228b9f86ad90247a775760201dea1d14]
class chess_view_StdConsoleIO--><rect fill="#FEFECE" height="32" id="chess_view_StdConsoleIO" style="stroke: #A80036; stroke-width: 1.5;" width="186" x="1943.5" y="8"/><ellipse cx="1958.5" cy="24" fill="#ADD1B2" rx="11" ry="11" style="stroke: #A80036; stroke-width: 1.0;"/><path d="M1961.4688,29.6406 Q1960.8906,29.9375 1960.25,30.0781 Q1959.6094,30.2344 1958.9063,30.2344 Q1956.4063,30.2344 1955.0781,28.5938 Q1953.7656,26.9375 1953.7656,23.8125 Q1953.7656,20.6875 1955.0781,19.0313 Q1956.4063,17.375 1958.9063,17.375 Q1959.6094,17.375 1960.25,17.5313 Q1960.9063,17.6875 1961.4688,17.9844 L1961.4688,20.7031 Q1960.8438,20.125 1960.25,19.8594 Q1959.6563,19.5781 1959.0313,19.5781 Q1957.6875,19.5781 1957,20.6563 Q1956.3125,21.7188 1956.3125,23.8125 Q1956.3125,25.9063 1957,26.9844 Q1957.6875,28.0469 1959.0313,28.0469 Q1959.6563,28.0469 1960.25,27.7813 Q1960.8438,27.5 1961.4688,26.9219 L1961.4688,29.6406 Z "/><text fill="#000000" font-family="sans-serif" font-size="12" lengthAdjust="spacingAndGlyphs" textLength="154" x="1972.5" y="28.1543">chess.view.StdConsoleIO</text><!--MD5=[ccf491f6c61fcd76117b3a02028cdc46]
class chess_view_TerminalView--><rect fill="#FEFECE" height="32" id="chess_view_TerminalView" style="stroke: #A80036; stroke-width: 1.5;" width="184" x="627.5" y="376"/><ellipse cx="642.5" cy="392" fill="#ADD1B2" rx="11" ry="11" style="stroke: #A80036; stroke-width: 1.0;"/><path d="M645.4688,397.6406 Q644.8906,397.9375 644.25,398.0781 Q643.6094,398.2344 642.9063,398.2344 Q640.4063,398.2344 639.0781,396.5938 Q637.7656,394.9375 637.7656,391.8125 Q637.7656,388.6875 639.0781,387.0313 Q640.4063,385.375 642.9063,385.375 Q643.6094,385.375 644.25,385.5313 Q644.9063,385.6875 645.4688,385.9844 L645.4688,388.7031 Q644.8438,388.125 644.25,387.8594 Q643.6563,387.5781 643.0313,387.5781 Q641.6875,387.5781 641,388.6563 Q640.3125,389.7188 640.3125,391.8125 Q640.3125,393.9063 641,394.9844 Q641.6875,396.0469 643.0313,396.0469 Q643.6563,396.0469 644.25,395.7813 Q644.8438,395.5 645.4688,394.9219 L645.4688,397.6406 Z "/><text fill="#000000" font-family="sans-serif" font-size="12" lengthAdjust="spacingAndGlyphs" textLength="152" x="656.5" y="396.1543">chess.view.TerminalView</text><!--MD5=[fda4baa0968326ebf371cdc62636b45a]
class chess_view_Tui--><rect fill="#FEFECE" height="32" id="chess_view_Tui" style="stroke: #A80036; stroke-width: 1.5;" width="121" x="1547" y="100"/><ellipse cx="1562" cy="116" fill="#ADD1B2" rx="11" ry="11" style="stroke: #A80036; stroke-width: 1.0;"/><path d="M1564.9688,121.6406 Q1564.3906,121.9375 1563.75,122.0781 Q1563.1094,122.2344 1562.4063,122.2344 Q1559.9063,122.2344 1558.5781,120.5938 Q1557.2656,118.9375 1557.2656,115.8125 Q1557.2656,112.6875 1558.5781,111.0313 Q1559.9063,109.375 1562.4063,109.375 Q1563.1094,109.375 1563.75,109.5313 Q1564.4063,109.6875 1564.9688,109.9844 L1564.9688,112.7031 Q1564.3438,112.125 1563.75,111.8594 Q1563.1563,111.5781 1562.5313,111.5781 Q1561.1875,111.5781 1560.5,112.6563 Q1559.8125,113.7188 1559.8125,115.8125 Q1559.8125,117.9063 1560.5,118.9844 Q1561.1875,120.0469 1562.5313,120.0469 Q1563.1563,120.0469 1563.75,119.7813 Q1564.3438,119.5 1564.9688,118.9219 L1564.9688,121.6406 Z "/><text fill="#000000" font-family="sans-serif" font-size="12" lengthAdjust="spacingAndGlyphs" textLength="89" x="1576" y="120.1543">chess.view.Tui</text><!--MD5=[3837237ac62e487d4638779797b32ac2]
link chess_ai_PassiveTrainer to chess_ai_Trainer--><path d="M2716.5,40.27 C2716.5,51.06 2716.5,65.99 2716.5,79.67 " fill="none" id="chess_ai_PassiveTrainer-&gt;chess_ai_Trainer" style="stroke: #A80036; stroke-width: 1.0;"/><polygon fill="none" points="2723.5,79.96,2716.5,99.96,2709.5,79.96,2723.5,79.96" style="stroke: #A80036; stroke-width: 1.0;"/><!--MD5=[5aee597ac6d70973d396387c6fd6b80e]
link chess_controller_GameController to chess_controller_AppState--><path d="M1243.47,132.06 C1274.16,146.08 1320.36,167.19 1355.92,183.44 " fill="none" id="chess_controller_GameController-&gt;chess_controller_AppState" style="stroke: #A80036; stroke-width: 1.0;"/><polygon fill="none" points="1359.14,177.21,1374.42,191.89,1353.32,189.94,1359.14,177.21" style="stroke: #A80036; stroke-width: 1.0;"/><!--MD5=[5082f877e2647b974847672d64e12488]
link chess_controller_GameController to chess_util_Observable--><path d="M1279.29,132.06 C1349.04,147.34 1457.25,171.03 1533.27,187.68 " fill="none" id="chess_controller_GameController-&gt;chess_util_Observable" style="stroke: #A80036; stroke-width: 1.0;"/><polygon fill="none" points="1534.79,180.85,1552.83,191.96,1531.79,194.52,1534.79,180.85" style="stroke: #A80036; stroke-width: 1.0;"/><!--MD5=[7c930194df92ff96e5d1066ee8e3340b]
link chess_util_Failure to chess_util_Result--><path d="M3913.6,40.27 C3925.82,52.62 3943.39,70.4 3958.34,85.51 " fill="none" id="chess_util_Failure-&gt;chess_util_Result" style="stroke: #A80036; stroke-width: 1.0;"/><polygon fill="none" points="3963.54,80.82,3972.63,99.96,3953.59,90.66,3963.54,80.82" style="stroke: #A80036; stroke-width: 1.0;"/><!--MD5=[69480ad2f779f3f671bcbca559d2d425]
link chess_util_Success to chess_util_Result--><path d="M4061.4,40.27 C4049.18,52.62 4031.61,70.4 4016.66,85.51 " fill="none" id="chess_util_Success-&gt;chess_util_Result" style="stroke: #A80036; stroke-width: 1.0;"/><polygon fill="none" points="4021.41,90.66,4002.37,99.96,4011.46,80.82,4021.41,90.66" style="stroke: #A80036; stroke-width: 1.0;"/><!--MD5=[c1094c1d0cdbe58f22cf5fb4b0ce7d5d]
link chess_util_parser_CombinatorPgnParser to chess_util_parser_PgnParser--><path d="M3066.24,132.05 C3118.45,142.85 3179.81,161.17 3228.5,192 C3258.54,211.02 3284.08,242.85 3300.58,266.87 " fill="none" id="chess_util_parser_CombinatorPgnParser-&gt;chess_util_parser_PgnParser" style="stroke: #A80036; stroke-width: 1.0;"/><polygon fill="none" points="3306.5,263.13,3311.56,283.71,3294.77,270.78,3306.5,263.13" style="stroke: #A80036; stroke-width: 1.0;"/><!--MD5=[5310ddb4c3bff28a05f58627bd70e4f8]
link chess_util_parser_CoordinateMoveParser to chess_util_parser_MoveParser--><path d="M3129.59,40.06 C3147.94,53.17 3174.98,72.49 3197.01,88.22 " fill="none" id="chess_util_parser_CoordinateMoveParser-&gt;chess_util_parser_MoveParser" style="stroke: #A80036; stroke-width: 1.0;"/><polygon fill="none" points="3201.14,82.57,3213.34,99.89,3193,93.96,3201.14,82.57" style="stroke: #A80036; stroke-width: 1.0;"/><!--MD5=[b19808085485277027764b363727633e]
link chess_util_parser_DelegatingPgnParser to chess_util_parser_PgnParser--><path d="M3115.67,224.06 C3155.23,238.54 3215.45,260.57 3260.37,277 " fill="none" id="chess_util_parser_DelegatingPgnParser-&gt;chess_util_parser_PgnParser" style="stroke: #A80036; stroke-width: 1.0;"/><polygon fill="none" points="3262.81,270.44,3279.19,283.89,3258,283.59,3262.81,270.44" style="stroke: #A80036; stroke-width: 1.0;"/><!--MD5=[5155a894e46f13244287e7ef8c4eecba]
link chess_util_parser_FastPgnParser to chess_util_parser_PgnParser--><path d="M3488.87,132.14 C3485.77,154.51 3477.15,196.7 3454.5,224 C3435.78,246.56 3408.42,263.58 3383.29,275.65 " fill="none" id="chess_util_parser_FastPgnParser-&gt;chess_util_parser_PgnParser" style="stroke: #A80036; stroke-width: 1.0;"/><polygon fill="none" points="3385.81,282.2,3364.69,283.93,3380.12,269.41,3385.81,282.2" style="stroke: #A80036; stroke-width: 1.0;"/><!--MD5=[70fde3dffc4237ed69e8192b08f606c2]
link chess_util_parser_RegexPgnParser to chess_util_parser_PgnParser--><path d="M3727.79,132.05 C3649.98,163.94 3468.07,238.51 3376,276.25 " fill="none" id="chess_util_parser_RegexPgnParser-&gt;chess_util_parser_PgnParser" style="stroke: #A80036; stroke-width: 1.0;"/><polygon fill="none" points="3378.42,282.83,3357.26,283.93,3373.11,269.87,3378.42,282.83" style="stroke: #A80036; stroke-width: 1.0;"/><!--MD5=[38919c7158e1d8ec53258a4c82a06c02]
link chess_util_parser_SanMoveParser to chess_util_parser_MoveParser--><path d="M3376.05,40.06 C3350.18,53.76 3311.53,74.22 3281.15,90.3 " fill="none" id="chess_util_parser_SanMoveParser-&gt;chess_util_parser_MoveParser" style="stroke: #A80036; stroke-width: 1.0;"/><polygon fill="none" points="3284,96.72,3263.05,99.89,3277.45,84.34,3284,96.72" style="stroke: #A80036; stroke-width: 1.0;"/><!--MD5=[b508f2c54bd6794d7478843792ad46b1]
link chess_view_RestApi to chess_controller_AppState--><path d="M1432.41,132.27 C1428.73,143.32 1423.59,158.72 1418.95,172.66 " fill="none" id="chess_view_RestApi-&gt;chess_controller_AppState" style="stroke: #A80036; stroke-width: 1.0;"/><polygon fill="none" points="1425.48,175.2,1412.51,191.96,1412.2,170.77,1425.48,175.2" style="stroke: #A80036; stroke-width: 1.0;"/><!--MD5=[c8de9aa93ea95bc2b0bf2fd464bb426c]
link chess_view_RestApi to chess_util_Observer--><path d="M1500.1,132.06 C1563.03,147.21 1660.36,170.63 1729.44,187.25 " fill="none" id="chess_view_RestApi-&gt;chess_util_Observer" style="stroke: #A80036; stroke-width: 1.0;"/><polygon fill="none" points="1731.2,180.48,1749.01,191.96,1727.93,194.09,1731.2,180.48" style="stroke: #A80036; stroke-width: 1.0;"/><!--MD5=[ed7aa45efedb44c1b761a356facd33ce]
link chess_view_StdConsoleIO to chess_view_ConsoleIO--><path d="M2036.5,40.27 C2036.5,51.06 2036.5,65.99 2036.5,79.67 " fill="none" id="chess_view_StdConsoleIO-&gt;chess_view_ConsoleIO" style="stroke: #A80036; stroke-width: 1.0;"/><polygon fill="none" points="2043.5,79.96,2036.5,99.96,2029.5,79.96,2043.5,79.96" style="stroke: #A80036; stroke-width: 1.0;"/><!--MD5=[0299d826ac0b9c2ada186051a4d583eb]
link chess_view_Tui to chess_controller_AppState--><path d="M1574.02,132.06 C1542.73,146.15 1495.53,167.39 1459.36,183.66 " fill="none" id="chess_view_Tui-&gt;chess_controller_AppState" style="stroke: #A80036; stroke-width: 1.0;"/><polygon fill="none" points="1462.2,190.06,1441.08,191.89,1456.45,177.3,1462.2,190.06" style="stroke: #A80036; stroke-width: 1.0;"/><!--MD5=[07f0e80ea3934aa492b5a9a1b1e89810]
link chess_view_Tui to chess_util_Observer--><path d="M1641.65,132.06 C1673.64,146.18 1721.93,167.49 1758.86,183.78 " fill="none" id="chess_view_Tui-&gt;chess_util_Observer" style="stroke: #A80036; stroke-width: 1.0;"/><polygon fill="none" points="1761.77,177.41,1777.24,191.89,1756.12,190.22,1761.77,177.41" style="stroke: #A80036; stroke-width: 1.0;"/><!--MD5=[e9f5fc31ad208bb3d9bae0ee971646b8]
link chess_Main to chess_controller_GameController--><path d="M1210.5,40.27 C1210.5,55.23 1210.5,78.12 1210.5,94.63 " fill="none" id="chess_Main-&gt;chess_controller_GameController" style="stroke: #A80036; stroke-width: 1.0; stroke-dasharray: 7.0,7.0;"/><polygon fill="#A80036" points="1210.5,99.96,1214.5,90.96,1210.5,94.96,1206.5,90.96,1210.5,99.96" style="stroke: #A80036; stroke-width: 1.0;"/><!--MD5=[4df82edc50fc1f40972b01cc3e1c6a36]
link chess_controller_MessageType to chess_util_Observable--><path d="M2153.27,131.81 C2043.08,146.59 1869.55,170.19 1719.5,192 C1715.61,192.57 1711.63,193.15 1707.61,193.74 " fill="none" id="chess_controller_MessageType-&gt;chess_util_Observable" style="stroke: #A80036; stroke-width: 1.0; stroke-dasharray: 7.0,7.0;"/><polygon fill="#A80036" points="1702.5,194.5,1711.9945,197.118,1707.4445,193.7569,1710.8056,189.2068,1702.5,194.5" style="stroke: #A80036; stroke-width: 1.0;"/><!--MD5=[5da796055471296c16b0d412ba782a58]
link chess_controller_MessageType to chess_util_parser_ParserRegistry--><path d="M2285.25,132.06 C2306.8,147.7 2340.52,172.17 2363.51,188.86 " fill="none" id="chess_controller_MessageType-&gt;chess_util_parser_ParserRegistry" style="stroke: #A80036; stroke-width: 1.0; stroke-dasharray: 7.0,7.0;"/><polygon fill="#A80036" points="2367.68,191.89,2362.7433,183.3677,2363.6326,188.9542,2358.0461,189.8435,2367.68,191.89" style="stroke: #A80036; stroke-width: 1.0;"/><!--MD5=[1f3fe0139510b74f6ba512d66564785d]
link chess_util_Pgn to chess_util_parser_PgnParser--><path d="M3367.83,224.27 C3358.19,239.49 3343.35,262.92 3332.86,279.48 " fill="none" id="chess_util_Pgn-&gt;chess_util_parser_PgnParser" style="stroke: #A80036; stroke-width: 1.0; stroke-dasharray: 7.0,7.0;"/><polygon fill="#A80036" points="3330.03,283.96,3338.2186,278.4876,3332.7005,279.7329,3331.4552,274.2148,3330.03,283.96" style="stroke: #A80036; stroke-width: 1.0;"/><!--MD5=[181f1cfadc2565f23560b4429d86305d]
link chess_util_parser_CombinatorPgnParser to chess_util_Pgn--><path d="M3026.13,132.06 C3105.92,149.08 3234.7,176.55 3312.21,193.08 " fill="none" id="chess_util_parser_CombinatorPgnParser-&gt;chess_util_Pgn" style="stroke: #A80036; stroke-width: 1.0; stroke-dasharray: 7.0,7.0;"/><polygon fill="#A80036" points="3317.25,194.15,3309.2798,188.3641,3312.3595,193.1092,3307.6145,196.1889,3317.25,194.15" style="stroke: #A80036; stroke-width: 1.0;"/><!--MD5=[d8671cdfd3d96dc38bc0d564269c121d]
link chess_util_parser_DelegatingPgnParser to chess_model_GameState--><path d="M3083.94,224.2 C3104.35,257.07 3152.56,334.72 3175.27,371.3 " fill="none" id="chess_util_parser_DelegatingPgnParser-&gt;chess_model_GameState" style="stroke: #A80036; stroke-width: 1.0; stroke-dasharray: 7.0,7.0;"/><polygon fill="#A80036" points="3178.17,375.97,3176.8452,366.2107,3175.5431,371.7156,3170.0382,370.4136,3178.17,375.97" style="stroke: #A80036; stroke-width: 1.0;"/><!--MD5=[facf132fa3cd82389c33d23be5ddf7ae]
link chess_util_parser_FastPgnParser to chess_util_Pgn--><path d="M3471.59,132.06 C3452.03,147.64 3421.48,171.97 3400.53,188.66 " fill="none" id="chess_util_parser_FastPgnParser-&gt;chess_util_Pgn" style="stroke: #A80036; stroke-width: 1.0; stroke-dasharray: 7.0,7.0;"/><polygon fill="#A80036" points="3396.48,191.89,3406.0133,189.4167,3400.3927,188.777,3401.0324,183.1564,3396.48,191.89" style="stroke: #A80036; stroke-width: 1.0;"/><!--MD5=[e2193da86b4d5fc27dedd44388c28b32]
link chess_util_parser_MoveParser to chess_util_Pgn--><path d="M3258.43,132.06 C3283.39,147.77 3322.49,172.38 3349.01,189.07 " fill="none" id="chess_util_parser_MoveParser-&gt;chess_util_Pgn" style="stroke: #A80036; stroke-width: 1.0; stroke-dasharray: 7.0,7.0;"/><polygon fill="#A80036" points="3353.49,191.89,3348.0176,183.7014,3349.2629,189.2195,3343.7448,190.4648,3353.49,191.89" style="stroke: #A80036; stroke-width: 1.0;"/><!--MD5=[8c5addb049908ac780a533dca7023a1a]
link chess_util_parser_PgnParser to chess_model_GameState--><path d="M3298.24,316.06 C3275.03,331.77 3238.67,356.38 3213.99,373.07 " fill="none" id="chess_util_parser_PgnParser-&gt;chess_model_GameState" style="stroke: #A80036; stroke-width: 1.0; stroke-dasharray: 7.0,7.0;"/><polygon fill="#A80036" points="3209.83,375.89,3219.5196,374.1259,3213.9614,373.0738,3215.0136,367.5156,3209.83,375.89" style="stroke: #A80036; stroke-width: 1.0;"/><!--MD5=[c12929c6bf5722a37eb222fb79d0bef5]
link chess_util_parser_RegexPgnParser to chess_util_Pgn--><path d="M3699.72,132.06 C3628.39,148.65 3514.32,175.18 3442.78,191.82 " fill="none" id="chess_util_parser_RegexPgnParser-&gt;chess_util_Pgn" style="stroke: #A80036; stroke-width: 1.0; stroke-dasharray: 7.0,7.0;"/><polygon fill="#A80036" points="3437.71,193,3447.3806,194.8655,3442.581,191.8715,3445.575,187.072,3437.71,193" style="stroke: #A80036; stroke-width: 1.0;"/><!--MD5=[8a3530b6b3bf773af16b5860391359cb]
link chess_view_CommandParser to chess_util_parser_ParserRegistry--><path d="M2492.58,132.06 C2470.86,147.7 2436.87,172.17 2413.69,188.86 " fill="none" id="chess_view_CommandParser-&gt;chess_util_parser_ParserRegistry" style="stroke: #A80036; stroke-width: 1.0; stroke-dasharray: 7.0,7.0;"/><polygon fill="#A80036" points="2409.49,191.89,2419.1333,189.8881,2413.5509,188.973,2414.4661,183.3907,2409.49,191.89" style="stroke: #A80036; stroke-width: 1.0;"/><!--MD5=[5f44a2f477cb01119b15352b1dabbfc5]
link chess_view_CommandRequest to chess_util_Observer--><path d="M1811.5,132.27 C1811.5,147.23 1811.5,170.12 1811.5,186.63 " fill="none" id="chess_view_CommandRequest-&gt;chess_util_Observer" style="stroke: #A80036; stroke-width: 1.0; stroke-dasharray: 7.0,7.0;"/><polygon fill="#A80036" points="1811.5,191.96,1815.5,182.96,1811.5,186.96,1807.5,182.96,1811.5,191.96" style="stroke: #A80036; stroke-width: 1.0;"/><!--MD5=[81127d280742177223d73414ec802c9f]
link chess_view_ConsoleIO to chess_util_Observer--><path d="M1998.84,132.06 C1958.85,148.06 1895.76,173.3 1854.01,190 " fill="none" id="chess_view_ConsoleIO-&gt;chess_util_Observer" style="stroke: #A80036; stroke-width: 1.0; stroke-dasharray: 7.0,7.0;"/><polygon fill="#A80036" points="1849.28,191.89,1859.1222,192.2509,1853.9204,190.0281,1856.1432,184.8263,1849.28,191.89" style="stroke: #A80036; stroke-width: 1.0;"/><!--MD5=[685ed2d976b55903f16cd398ce02cdb9]
link chess_TrainMain to chess_ai_AiEngine--><!--MD5=[81dd5d2f607fc2c50215d00ea1f92e88]
link chess_ai_AiEngine to chess_ai_Evaluator--><!--MD5=[1e3f4c906209a69a4ce30346111bcc7f]
link chess_ai_Evaluator to chess_controller_Command--><!--MD5=[c6eeb079e3b5cba4d0198b4309ccfd3b]
link chess_controller_Command to chess_model_BlackToMove--><!--MD5=[310acd67d8a5a773ed475dc417938932]
link chess_TrainMain to chess_model_Board--><!--MD5=[fbc4ee24d9a4a088809f9b8a0d47d858]
link chess_model_Board to chess_model_CastlingRights--><!--MD5=[f38406ae9ef31e89b9675afd65a698b7]
link chess_model_CastlingRights to chess_model_ClockState--><!--MD5=[da9b2b39c5e216eaef93ab9750912621]
link chess_model_ClockState to chess_model_Color--><!--MD5=[13e5e0c210e5e91cc72bfab372c43842]
link chess_model_Color to chess_model_GameRules--><!--MD5=[42f4cb6f2e64b58d12e97c7340ec218a]
link chess_model_Board to chess_model_GameStatus--><!--MD5=[d8206fd336a5cb65a6b027e67791a1a1]
link chess_model_GameStatus to chess_model_MaterialInfo--><!--MD5=[e7263577ce5543b3f5233942ce261ccf]
link chess_model_MaterialInfo to chess_model_Move--><!--MD5=[e387739a74b74ccd282c3bb3549b8dc7]
link chess_model_Move to chess_model_MoveGenerator--><!--MD5=[4a6153c844f756fa49fc5ac8c67c6665]
link chess_model_MoveGenerator to chess_model_Piece--><!--MD5=[1f6bc84eee0b0cca0d3a867a26483dd5]
link chess_model_GameStatus to chess_model_PieceType--><!--MD5=[818d08f1357b5f903dc4cec110c48d7a]
link chess_model_PieceType to chess_model_PlayerInfo--><!--MD5=[8baddd1415a8c7a4d14082d2c7f21f80]
link chess_model_PlayerInfo to chess_model_Pos--><!--MD5=[7de91af2022ec222282a3f24f506ce06]
link chess_model_Pos to chess_model_TimeControl--><!--MD5=[2cf4a81989d7caae724d542fa8a6c8be]
link chess_model_TimeControl to chess_model_WhiteToMove--><!--MD5=[ea4d5f1d8d9aa850c2f1cf298d1f37a7]
link chess_model_PieceType to chess_view_GameStateResponse--><!--MD5=[93bbd0f8f36551b2388d15ac615c7345]
link chess_view_GameStateResponse to chess_view_Gui--><!--MD5=[76689a567aa03d173a42abbeb704cbbb]
link chess_view_Gui to chess_view_JaviClient--><!--MD5=[e0b79f508c40369e2d17d2db83525f39]
link chess_view_JaviClient to chess_view_TerminalView--><!--MD5=[d201d44e4b9d4ab199c7a0ffc4fae3f4]
@startuml
skinparam shadowing false
hide empty members

class "chess.Main" as chess_Main
class "chess.TrainMain" as chess_TrainMain
class "chess.ai.AiEngine" as chess_ai_AiEngine
class "chess.ai.Evaluator" as chess_ai_Evaluator
class "chess.ai.PassiveTrainer" as chess_ai_PassiveTrainer
interface "chess.ai.Trainer" as chess_ai_Trainer
class "chess.controller.AppState" as chess_controller_AppState
enum "chess.controller.Command" as chess_controller_Command
class "chess.controller.GameController" as chess_controller_GameController
enum "chess.controller.MessageType" as chess_controller_MessageType
class "chess.model.BlackToMove" as chess_model_BlackToMove
class "chess.model.Board" as chess_model_Board
class "chess.model.CastlingRights" as chess_model_CastlingRights
class "chess.model.ClockState" as chess_model_ClockState
enum "chess.model.Color" as chess_model_Color
class "chess.model.GameRules" as chess_model_GameRules
interface "chess.model.GameState" as chess_model_GameState
enum "chess.model.GameStatus" as chess_model_GameStatus
class "chess.model.MaterialInfo" as chess_model_MaterialInfo
class "chess.model.Move" as chess_model_Move
class "chess.model.MoveGenerator" as chess_model_MoveGenerator
class "chess.model.Piece" as chess_model_Piece
enum "chess.model.PieceType" as chess_model_PieceType
class "chess.model.PlayerInfo" as chess_model_PlayerInfo
class "chess.model.Pos" as chess_model_Pos
class "chess.model.TimeControl" as chess_model_TimeControl
class "chess.model.WhiteToMove" as chess_model_WhiteToMove
class "chess.util.Failure" as chess_util_Failure
interface "chess.util.Observable" as chess_util_Observable
interface "chess.util.Observer" as chess_util_Observer
class "chess.util.Pgn" as chess_util_Pgn
interface "chess.util.Result" as chess_util_Result
class "chess.util.Success" as chess_util_Success
class "chess.util.parser.CombinatorPgnParser" as chess_util_parser_CombinatorPgnParser
class "chess.util.parser.CoordinateMoveParser" as chess_util_parser_CoordinateMoveParser
class "chess.util.parser.DelegatingPgnParser" as chess_util_parser_DelegatingPgnParser
class "chess.util.parser.FastPgnParser" as chess_util_parser_FastPgnParser
interface "chess.util.parser.MoveParser" as chess_util_parser_MoveParser
class "chess.util.parser.ParserRegistry" as chess_util_parser_ParserRegistry
interface "chess.util.parser.PgnParser" as chess_util_parser_PgnParser
class "chess.util.parser.RegexPgnParser" as chess_util_parser_RegexPgnParser
class "chess.util.parser.SanMoveParser" as chess_util_parser_SanMoveParser
class "chess.view.CommandParser" as chess_view_CommandParser
class "chess.view.CommandRequest" as chess_view_CommandRequest
interface "chess.view.ConsoleIO" as chess_view_ConsoleIO
class "chess.view.GameStateResponse" as chess_view_GameStateResponse
class "chess.view.Gui" as chess_view_Gui
class "chess.view.JaviClient" as chess_view_JaviClient
class "chess.view.RestApi" as chess_view_RestApi
class "chess.view.StdConsoleIO" as chess_view_StdConsoleIO
class "chess.view.TerminalView" as chess_view_TerminalView
class "chess.view.Tui" as chess_view_Tui

chess_ai_PassiveTrainer - -|> chess_ai_Trainer
chess_controller_GameController - -|> chess_controller_AppState
chess_controller_GameController - -|> chess_util_Observable
chess_util_Failure - -|> chess_util_Result
chess_util_Success - -|> chess_util_Result
chess_util_parser_CombinatorPgnParser - -|> chess_util_parser_PgnParser
chess_util_parser_CoordinateMoveParser - -|> chess_util_parser_MoveParser
chess_util_parser_DelegatingPgnParser - -|> chess_util_parser_PgnParser
chess_util_parser_FastPgnParser - -|> chess_util_parser_PgnParser
chess_util_parser_RegexPgnParser - -|> chess_util_parser_PgnParser
chess_util_parser_SanMoveParser - -|> chess_util_parser_MoveParser
chess_view_RestApi - -|> chess_controller_AppState
chess_view_RestApi - -|> chess_util_Observer
chess_view_StdConsoleIO - -|> chess_view_ConsoleIO
chess_view_Tui - -|> chess_controller_AppState
chess_view_Tui - -|> chess_util_Observer
chess_Main ..> chess_controller_GameController
chess_controller_MessageType ..> chess_util_Observable
chess_controller_MessageType ..> chess_util_parser_ParserRegistry
chess_util_Pgn ..> chess_util_parser_PgnParser
chess_util_parser_CombinatorPgnParser ..> chess_util_Pgn
chess_util_parser_DelegatingPgnParser ..> chess_model_GameState
chess_util_parser_FastPgnParser ..> chess_util_Pgn
chess_util_parser_MoveParser ..> chess_util_Pgn
chess_util_parser_PgnParser ..> chess_model_GameState
chess_util_parser_RegexPgnParser ..> chess_util_Pgn
chess_view_CommandParser ..> chess_util_parser_ParserRegistry
chess_view_CommandRequest ..> chess_util_Observer
chess_view_ConsoleIO ..> chess_util_Observer
@enduml

PlantUML version 1.2020.02(Sun Mar 01 10:22:07 UTC 2020)
(GPL source distribution)
Java Runtime: OpenJDK Runtime Environment
JVM: OpenJDK 64-Bit Server VM
Java Version: 17.0.18+8
Operating System: Linux
Default Encoding: UTF-8
Language: en
Country: null
--></g></svg>